# xmcd
# 
# Track frame offsets:
#     182
#     9902
#     20757
#     32827
#     43800
#     56320
#     66210
#     74610
#     83015
#     93192
# 
# Disc length: 1417
# 
# Revision: 10
# Processed by: cddbd v1.5.2PL0 Copyright (c) Steve Scherf et al.
# Submitted via: fre:ac v1.0.27
# 
DISCID=7b05870a
DTITLE=Various / Stand by Me (Original Motion Picture Soundtrack)
DYEAR=1986
DGENRE=American Pop Rock
TTITLE0=Buddy Holly / Everyday
TTITLE1=Shirley and Lee / Let the Good Times Roll
TTITLE2=The Del Vikings / Come Go with Me
TTITLE3=The Del Vikings / Whispering Bells
TTITLE4=The Silhouettes / Get a Job
TTITLE5=The Chordettes / Lollipop
TTITLE6=The Coasters / Yakety Yak
TTITLE7=Jerry Lee Lewis / Great Balls of Fire
TTITLE8=The Bobbettes / Mr. Lee
TTITLE9=Ben E. King / Stand by Me
EXTD=
EXTT0=
EXTT1=
EXTT2=
EXTT3=
EXTT4=
EXTT5=
EXTT6=
EXTT7=
EXTT8=
EXTT9=
PLAYORDER=
.
